<?xml version="1.0" encoding="UTF-8"?>
<svg width="18px" height="18px" viewBox="0 0 18 18" version="1.1" xmlns="http://www.w3.org/2000/svg" xmlns:xlink="http://www.w3.org/1999/xlink">
    <!-- Generator: Sketch 60.1 (88133) - https://sketch.com -->
    <title>icon/富文本/字体颜色</title>
    <desc>Created with Sketch.</desc>
    <g id="icon/富文本/字体颜色" stroke="none" stroke-width="1" fill="none" fill-rule="evenodd">
        <g id="分组-6" transform="translate(2.000000, 2.000000)">
            <rect id="矩形" fill-rule="nonzero" x="0" y="0" width="14" height="14"></rect>
            <path d="M6.40288035,1.13866667 L7.64364845,1.13866667 L10.9316839,9.01203724 C11.0661011,9.32488797 11.2160258,9.55734995 11.3814623,9.70943017 C11.5468989,9.86151038 11.7795406,9.93754935 12.0793944,9.93754935 L12.25,9.93754935 L12.25,10.472 L8.48116691,10.472 L8.48116691,9.93754935 C8.90509813,9.93754935 9.18426816,9.91147885 9.31868538,9.85933706 C9.45310259,9.80719527 9.52031019,9.71160343 9.52031019,9.57255866 C9.52031019,9.44220419 9.45310259,9.21625983 9.31868538,8.89471881 L8.62075332,7.1870838 L4.78988183,7.1870838 L3.98338257,9.10328492 C3.90066428,9.29447147 3.85930576,9.44220432 3.85930576,9.5464879 C3.85930576,9.69422296 3.92909827,9.79633243 4.06868538,9.85281937 C4.20827249,9.9093063 4.49002742,9.93754935 4.91395864,9.93754935 L4.91395864,10.472 L1.75,10.472 L1.75,9.93754935 C2.14291186,9.93754935 2.42208189,9.87671818 2.58751846,9.755054 C2.75295504,9.63338983 2.92355894,9.36399464 3.0993353,8.94686034 L6.40288035,1.13866667 Z M5.06905465,6.56138547 L8.3415805,6.56138547 L6.69756278,2.28578026 L5.06905465,6.56138547 Z" id="A" fill="#474C59"></path>
        </g>
    </g>
</svg>