<?xml version="1.0" encoding="UTF-8"?>
<svg width="18px" height="18px" viewBox="0 0 18 18" version="1.1" xmlns="http://www.w3.org/2000/svg" xmlns:xlink="http://www.w3.org/1999/xlink">
    <!-- Generator: Sketch 61.2 (89653) - https://sketch.com -->
    <title>附件1.2</title>
    <desc>Created with Sketch.</desc>
    <g id="附件1.2" stroke="none" stroke-width="1" fill="none" fill-rule="evenodd" stroke-linecap="round">
        <g transform="translate(2.000000, 2.000000)" id="路径" stroke="#474C59" stroke-width="1.2">
            <path d="M4.37500015,2.43090283 C4.37500015,0.981155363 5.55025268,-0.194097167 7.00000015,-0.194097167 C8.44974765,-0.194097167 9.62500015,0.981155363 9.62500015,2.43090283 L9.62500015,11.1809029 C9.62500015,12.6306503 8.44974765,13.8059028 7.00000015,13.8059028 C5.55025268,13.8059028 4.37500015,12.6306503 4.37500015,11.1809029 C4.39096153,10.1182989 4.40293257,9.32134586 4.41091326,8.79004386" transform="translate(7.000000, 6.805903) rotate(45.000000) translate(-7.000000, -6.805903) "></path>
            <path d="M4.63678385,8.52190513 L4.63678385,5.02190512 C4.63678385,4.29703139 5.22441012,3.70940512 5.94928385,3.70940512 C6.67415759,3.70940512 7.26178385,4.29703139 7.26178385,5.02190512 L7.26178385,8.52190513" transform="translate(5.949284, 6.115655) rotate(46.000000) translate(-5.949284, -6.115655) "></path>
        </g>
    </g>
</svg>