<?xml version="1.0" encoding="UTF-8"?>
<svg width="18px" height="18px" viewBox="0 0 18 18" version="1.1" xmlns="http://www.w3.org/2000/svg" xmlns:xlink="http://www.w3.org/1999/xlink">
    <title>自动排序 1.2</title>
    <g id="自动排序-1.2" stroke="none" stroke-width="1" fill="none" fill-rule="evenodd">
        <g id="自动排版" transform="translate(2.500000, 2.000000)" fill="#474C59" fill-rule="nonzero">
            <path d="M1.55390625,2.87365451 L3.28385417,1.42300347 C3.52245949,1.22298169 3.87798981,1.25404009 4.07829861,1.49240451 L12.0577257,11.0014757 C12.153962,11.1160973 12.2007164,11.2642578 12.1877007,11.4133555 C12.1746851,11.5624533 12.102966,11.7002715 11.9883247,11.7964844 L10.258941,13.2471354 C10.0203356,13.4471572 9.66480533,13.4160988 9.46449653,13.1777344 L1.48394097,3.66866319 C1.38770464,3.5540416 1.34095031,3.40588108 1.35396594,3.25678334 C1.36698157,3.10768561 1.43870069,2.96986734 1.55334201,2.87365451 L1.55390625,2.87365451 Z M4.88797743,5.96905382 L9.96553819,12.0199219 L10.8299479,11.2948785 L5.75182292,5.24344618 L4.88797743,5.96905382 Z M2.71171875,3.37526042 L3.57612847,2.65021701 L5.02677951,4.37903646 L4.16236979,5.1046441 L2.71228299,3.37526042 L2.71171875,3.37526042 Z M0.564236111,6.57083333 L0.564236111,6.40659722 C0.564236111,6.29614027 0.653779161,6.20659722 0.764236111,6.20659722 L0.928472222,6.20659722 C1.03892917,6.20659722 1.12847222,6.29614027 1.12847222,6.40659722 L1.12847222,6.57083333 C1.12847222,6.68129028 1.21801527,6.77083333 1.32847222,6.77083333 L1.49270833,6.77083333 C1.60316528,6.77083333 1.69270833,6.86037638 1.69270833,6.97083333 L1.69270833,7.13506944 C1.69270833,7.24552639 1.60316528,7.33506944 1.49270833,7.33506944 L1.32847222,7.33506944 C1.21801527,7.33506944 1.12847222,7.42461249 1.12847222,7.53506944 L1.12847222,7.69930556 C1.12847222,7.80976251 1.03892917,7.89930556 0.928472222,7.89930556 L0.764236111,7.89930556 C0.653779161,7.89930556 0.564236111,7.80976251 0.564236111,7.69930556 L0.564236111,7.53506944 C0.564236111,7.42461249 0.474693061,7.33506944 0.364236111,7.33506944 L0.2,7.33506944 C0.08954305,7.33506944 1.3527075e-17,7.24552639 0,7.13506944 L0,6.97083333 C-1.3527075e-17,6.86037638 0.08954305,6.77083333 0.2,6.77083333 L0.364236111,6.77083333 C0.474693061,6.77083333 0.564236111,6.68129028 0.564236111,6.57083333 Z M10.15625,1.49270833 L10.15625,0.2 C10.15625,0.08954305 10.2457931,9.06405162e-17 10.35625,0 L11.0847222,0 C11.1951792,7.46496308e-18 11.2847222,0.08954305 11.2847222,0.2 L11.2847222,1.49270833 C11.2847222,1.60316528 11.3742653,1.69270833 11.4847222,1.69270833 L12.7774306,1.69270833 C12.8878875,1.69270833 12.9774306,1.78225138 12.9774306,1.89270833 L12.9774306,2.62118056 C12.9774306,2.73163751 12.8878875,2.82118056 12.7774306,2.82118056 L11.4847222,2.82118056 C11.3742653,2.82118056 11.2847222,2.91072361 11.2847222,3.02118056 L11.2847222,4.31388889 C11.2847222,4.42434584 11.1951792,4.51388889 11.0847222,4.51388889 L10.35625,4.51388889 C10.2457931,4.51388889 10.15625,4.42434584 10.15625,4.31388889 L10.15625,3.02118056 C10.15625,2.91072361 10.0667069,2.82118056 9.95625,2.82118056 L8.66354167,2.82118056 C8.55308472,2.82118056 8.46354167,2.73163751 8.46354167,2.62118056 L8.46354167,1.89270833 C8.46354167,1.78225138 8.55308472,1.69270833 8.66354167,1.69270833 L9.95625,1.69270833 C10.0667069,1.69270833 10.15625,1.60316528 10.15625,1.49270833 Z M2.25694444,9.95625 L2.25694444,9.22777778 C2.25694444,9.11732083 2.34648749,9.02777778 2.45694444,9.02777778 L3.18541667,9.02777778 C3.29587362,9.02777778 3.38541667,9.11732083 3.38541667,9.22777778 L3.38541667,9.95625 C3.38541667,10.0667069 3.47495972,10.15625 3.58541667,10.15625 L4.31388889,10.15625 C4.42434584,10.15625 4.51388889,10.2457931 4.51388889,10.35625 L4.51388889,11.0847222 C4.51388889,11.1951792 4.42434584,11.2847222 4.31388889,11.2847222 L3.58541667,11.2847222 C3.47495972,11.2847222 3.38541667,11.3742653 3.38541667,11.4847222 L3.38541667,12.2131944 C3.38541667,12.3236514 3.29587362,12.4131944 3.18541667,12.4131944 L2.45694444,12.4131944 C2.34648749,12.4131944 2.25694444,12.3236514 2.25694444,12.2131944 L2.25694444,11.4847222 C2.25694444,11.3742653 2.16740139,11.2847222 2.05694444,11.2847222 L1.32847222,11.2847222 C1.21801527,11.2847222 1.12847222,11.1951792 1.12847222,11.0847222 L1.12847222,10.35625 C1.12847222,10.2457931 1.21801527,10.15625 1.32847222,10.15625 L2.05694444,10.15625 C2.16740139,10.15625 2.25694444,10.0667069 2.25694444,9.95625 Z" id="形状"></path>
        </g>
    </g>
</svg>