<?xml version="1.0" encoding="UTF-8"?>
<svg width="18px" height="18px" viewBox="0 0 18 18" version="1.1" xmlns="http://www.w3.org/2000/svg" xmlns:xlink="http://www.w3.org/1999/xlink">
    <!-- Generator: Sketch 60.1 (88133) - https://sketch.com -->
    <title>icon/富文本/加粗b</title>
    <desc>Created with Sketch.</desc>
    <g id="icon/富文本/加粗b" stroke="none" stroke-width="1" fill="none" fill-rule="evenodd">
        <path d="M4,3.5 L8.93883792,3.5 C10.6513847,3.5 11.8516785,3.70459903 12.5397554,4.11380323 C13.2278322,4.52300743 13.5718654,5.22295148 13.5718654,6.21365639 C13.5718654,6.82746269 13.3858326,7.34972863 13.0137615,7.7804699 C12.6416903,8.21121116 12.0937855,8.52349389 11.3700306,8.71732746 C13.1233523,9.04038341 14,9.94492649 14,11.4309838 C14,13.4770048 12.404705,14.5 9.21406728,14.5 L4,14.5 L4,13.8377386 L4.33639144,13.8377386 C4.69317202,13.8377386 4.94291468,13.7677442 5.08562691,13.6277533 C5.22833914,13.4877624 5.29969419,13.2508583 5.29969419,12.9170338 L5.29969419,5.27679883 C5.29969419,4.73837225 5.23598433,4.41801324 5.10856269,4.31571219 C4.98114106,4.21341114 4.72375321,4.16226138 4.33639144,4.16226138 L4,4.16226138 L4,3.5 Z M6.70642202,4.3722467 L6.70642202,8.41042584 L8.60244648,8.41042584 C9.78491927,8.41042584 10.648825,8.25428448 11.1941896,7.94199706 C11.7395542,7.62970965 12.0122324,7.06975441 12.0122324,6.26211454 C12.0122324,5.55139145 11.7803285,5.05873852 11.3165138,4.78414097 C10.852699,4.50954341 10.0754387,4.3722467 8.98470948,4.3722467 L6.70642202,4.3722467 Z M6.70642202,9.15345081 L6.70642202,12.7716593 C6.70642202,13.170095 6.75738991,13.4177675 6.85932722,13.5146843 C6.96126453,13.6116011 7.24158792,13.6600587 7.70030581,13.6600587 L8.72477064,13.6600587 C10.0193745,13.6600587 10.959732,13.4823806 11.5458716,13.1270191 C12.1320111,12.7716575 12.4250765,12.1793972 12.4250765,11.3502203 C12.4250765,10.5425804 12.1269143,9.97454888 11.530581,9.64610866 C10.9342478,9.31766845 9.998987,9.15345081 8.72477064,9.15345081 L6.70642202,9.15345081 Z" id="B" fill="#474C59"></path>
    </g>
</svg>