<?xml version="1.0" encoding="UTF-8"?>
<svg width="18px" height="18px" viewBox="0 0 18 18" version="1.1" xmlns="http://www.w3.org/2000/svg" xmlns:xlink="http://www.w3.org/1999/xlink">
    <!-- Generator: Sketch 60.1 (88133) - https://sketch.com -->
    <title>icon/富文本/高亮文字</title>
    <desc>Created with Sketch.</desc>
    <g id="icon/富文本/高亮文字" stroke="none" stroke-width="1" fill="none" fill-rule="evenodd">
        <g id="分组-5" transform="translate(2.000000, 2.000000)">
            <rect id="矩形" fill-rule="nonzero" x="0" y="0" width="14" height="14"></rect>
            <path d="M3.55202699,6.72836752 C3.55202699,6.66296482 3.62449737,6.63031198 3.66728726,6.67653782 L3.66728726,6.67653782 L6.58467219,9.84813207 C6.62730742,9.89457624 6.59718677,9.97344277 6.53710012,9.97344277 L6.53710012,9.97344277 L4.79049491,9.97344277 C4.77274609,9.97344277 4.75574672,9.98129061 4.74292284,9.99509407 L4.74292284,9.99509407 L4.2981555,10.47847 C4.28547437,10.4922735 4.268475,10.5 4.25028603,10.5 L4.25028603,10.5 L2.40094703,10.5 C2.34442917,10.5 2.31282152,10.4287387 2.34830727,10.3807662 L2.34830727,10.3807662 L3.53741871,8.76519097 C3.5469593,8.75220019 3.55202699,8.73616489 3.55202699,8.71943819 L3.55202699,8.71943819 Z M8.66049897,1.18799957 L11.6467617,4.43459102 C11.6733017,4.46326535 11.6733017,4.50970951 11.6467617,4.53838384 L7.06224868,9.52236792 C7.03600612,9.55092095 6.99321624,9.55092095 6.96711643,9.52236792 L3.98130575,6.27576434 C3.95520595,6.2473326 3.95520595,6.20076714 3.98130575,6.17209281 L8.56506933,1.18799957 C8.59146653,1.1595557 8.63395902,1.1595557 8.66049897,1.18799957 Z" id="Combined-shape-91" fill="#474C59"></path>
        </g>
    </g>
</svg>