<?xml version="1.0" encoding="UTF-8"?>
<svg width="18px" height="18px" viewBox="0 0 18 18" version="1.1" xmlns="http://www.w3.org/2000/svg" xmlns:xlink="http://www.w3.org/1999/xlink">
    <title>icon/富文本/引用备份</title>
    <g id="icon/富文本/引用备份" stroke="none" stroke-width="1" fill="none" fill-rule="evenodd">
        <g id="分组" transform="translate(2.000000, 2.000000)" fill-rule="nonzero">
            <rect id="矩形" x="0" y="0" width="14" height="14"></rect>
        </g>
        <g id="引用" transform="translate(4.000000, 4.000000)" fill="#3A8BFF" fill-rule="nonzero">
            <path d="M0.832777223,10 C0.372847069,10 0,9.59298614 0,9.0909091 L0,5.4909091 C0,3.59 0.452198036,2.53545455 0.856094973,1.96545454 C1.73467494,0.727272726 3.23950338,0 4.14556501,0 L4.14556501,1.38090909 C3.54596541,1.5809091 2.73983707,1.96 2.33677288,2.53545455 C1.93370871,3.1109091 1.67221666,3.76636365 1.67221666,4.73181818 L3.33777109,4.73181818 C3.55907089,4.73181709 3.77127053,4.82797032 3.92751858,4.99904825 C4.08376662,5.17012619 4.17121222,5.40205828 4.17055578,5.64363637 L4.16222054,9.09272727 C4.16130198,9.59409413 3.78872383,10 3.32944332,10 L0.832777223,10 Z M6.66221777,10 C6.20228762,10 5.82944055,9.59298614 5.82944055,9.0909091 L5.82944055,5.4909091 C5.82944055,3.59 6.28163859,2.53545455 6.68553554,1.96545454 C7.56411549,0.727272726 9.07810448,0 9.98333333,0 L9.98333333,1.38090909 C9.38539929,1.5809091 8.56927762,1.96 8.16621343,2.53545455 C7.76314924,3.1109091 7.50165721,3.76636365 7.50165721,4.73181818 L9.16721166,4.73181818 C9.38851145,4.73181709 9.60071109,4.82797033 9.75695913,4.99904826 C9.91320717,5.17012619 10.0006528,5.40205828 9.99999633,5.64363637 L9.99166111,9.09272727 C9.99074255,9.59409413 9.61816439,10 9.15888388,10 L6.66221777,10 Z" id="形状"></path>
        </g>
    </g>
</svg>