<svg width="19" height="18" viewBox="0 0 19 18" fill="none" xmlns="http://www.w3.org/2000/svg">
<path fill-rule="evenodd" clip-rule="evenodd" d="M9.93865 4.3849C9.75003 4.48939 9.53214 4.54902 9.30004 4.54902C9.1456 4.54902 8.99744 4.52262 8.86002 4.47416L7.2938 6.00967L6.69983 5.42734L8.20103 3.95558C8.07374 3.75857 8.00004 3.52498 8.00004 3.27451C8.00004 2.57062 8.58207 2 9.30004 2C10.018 2 10.6 2.57062 10.6 3.27451C10.6 3.44992 10.5639 3.61705 10.4985 3.76914L12.1899 5.42734L11.5959 6.00967L9.93865 4.3849Z" fill="#474C59"/>
<mask id="path-2-inside-1_2964_6136" fill="white">
<rect x="2.5" y="5.01953" width="14" height="10.9804" rx="0.7875"/>
</mask>
<rect x="2.5" y="5.01953" width="14" height="10.9804" rx="0.7875" stroke="#474C59" stroke-width="2.1" mask="url(#path-2-inside-1_2964_6136)"/>
<path fill-rule="evenodd" clip-rule="evenodd" d="M4.50806 11.6975C4.49163 11.7717 4.42761 11.8275 4.35161 11.8275C4.26066 11.8275 4.19016 11.7476 4.20539 11.658C4.29839 11.1107 4.4969 10.6026 4.74317 10.18C5.06462 9.62847 5.76677 8.96353 6.30424 8.96353C7.08057 8.96353 7.26018 9.3306 7.26018 9.96044C7.26018 10.3853 6.8113 12.0642 7.14424 12.1565C7.63474 12.2925 9.38424 9.41146 10.052 9.75795C10.7842 9.96048 10.2242 12.4311 10.7842 12.4311C11.3282 12.4311 12.9291 10.3587 13.7902 8.73041C13.8363 8.64318 13.9264 8.58789 14.025 8.58789H14.2083C14.419 8.58789 14.5495 8.82542 14.4384 9.0045C13.6132 10.3344 11.7815 13.4069 10.4483 13.0802C9.15747 12.7638 10.5042 9.41146 9.10424 11.0585C8.69605 11.5387 7.89272 12.7206 7.1515 12.6666C6.1406 12.593 6.59075 11.3786 6.65107 10.7869C6.71139 10.1953 6.98018 9.22439 6.30424 9.34365C5.28263 9.5239 4.64677 11.0712 4.50806 11.6975Z" fill="url(#paint0_linear_2964_6136)"/>
<defs>
<linearGradient id="paint0_linear_2964_6136" x1="13.8642" y1="9.68593" x2="2.66872" y2="10.8279" gradientUnits="userSpaceOnUse">
<stop offset="0.479167" stop-color="#474C59"/>
<stop offset="1" stop-color="#474C59" stop-opacity="0"/>
</linearGradient>
</defs>
</svg>
