<?xml version="1.0" encoding="UTF-8"?>
<svg width="18px" height="18px" viewBox="0 0 18 18" version="1.1" xmlns="http://www.w3.org/2000/svg" xmlns:xlink="http://www.w3.org/1999/xlink">
    <!-- Generator: Sketch 61.2 (89653) - https://sketch.com -->
    <title>icon/撤销 (左）备份</title>
    <desc>Created with Sketch.</desc>
    <g id="icon/撤销-(左）备份" stroke="none" stroke-width="1" fill="none" fill-rule="evenodd">
        <g id="撤销-(1)" transform="translate(2.000000, 4.000000)" fill="#474C59">
            <path d="M5.06047784,6.66441211 L5.06047784,9.43123564 C5.06047784,9.90833368 4.78162515,10.0144513 4.43808564,9.67539251 L0.258791984,5.55060819 C0.0931476215,5.38817 0,5.16722797 0,4.93676506 C0,4.70630214 0.0931476215,4.48536011 0.258791984,4.32292192 L4.43808564,0.198137604 C4.78424759,-0.143509454 5.06047784,-0.0313525917 5.06047784,0.442294467 L5.06047784,2.91405917 C6.15141247,2.82519643 10.0693364,2.69233368 12.0125637,5.11233368 C14.2835959,7.94041211 13.9680291,10.9988435 13.9680291,10.9988435 C13.9680291,10.9988435 12.5414222,8.22425525 10.0807003,7.16825525 C8.08852076,6.31154937 5.84283881,6.54449055 5.06047784,6.66441211 L5.06047784,6.66441211 Z" id="路径"></path>
        </g>
    </g>
</svg>