<?xml version="1.0" encoding="UTF-8"?>
<svg width="18px" height="18px" viewBox="0 0 18 18" version="1.1" xmlns="http://www.w3.org/2000/svg" xmlns:xlink="http://www.w3.org/1999/xlink">
    <!-- Generator: Sketch 61.2 (89653) - https://sketch.com -->
    <title>icon/撤销 (右）</title>
    <desc>Created with Sketch.</desc>
    <g id="icon/撤销-(右）" stroke="none" stroke-width="1" fill="none" fill-rule="evenodd">
        <g id="撤销-(1)" transform="translate(9.000000, 9.500000) scale(-1, 1) translate(-9.000000, -9.500000) translate(2.000000, 4.000000)" fill="#474C59">
            <path d="M5.07409171,6.66556863 L5.07409171,9.43239216 C5.07409171,9.9094902 4.79523902,10.0156078 4.45169951,9.67654902 L0.272405854,5.55176471 C0.106761491,5.38932652 0.0136138694,5.16838448 0.0136138694,4.93792157 C0.0136138694,4.70745866 0.106761491,4.48651662 0.272405854,4.32407843 L4.45169951,0.199294118 C4.79786146,-0.142352941 5.07409171,-0.0301960784 5.07409171,0.44345098 L5.07409171,2.91521569 C6.16502634,2.82635294 10.0829502,2.6934902 12.0261776,5.1134902 C14.2972098,7.94156863 13.9816429,11 13.9816429,11 C13.9816429,11 12.5550361,8.22541176 10.0943141,7.16941176 C8.10213463,6.31270588 5.85645268,6.54564706 5.07409171,6.66556863 L5.07409171,6.66556863 Z" id="路径"></path>
        </g>
    </g>
</svg>