<?xml version="1.0" encoding="UTF-8"?>
<svg width="18px" height="18px" viewBox="0 0 18 18" version="1.1" xmlns="http://www.w3.org/2000/svg" xmlns:xlink="http://www.w3.org/1999/xlink">
    <!-- Generator: Sketch 60.1 (88133) - https://sketch.com -->
    <title>icon/富文本/勾选</title>
    <desc>Created with Sketch.</desc>
    <g id="icon/富文本/勾选" stroke="none" stroke-width="1" fill="none" fill-rule="evenodd">
        <g id="控件/选择/复选未选-copy-6" transform="translate(2.500000, 2.500000)" fill-rule="nonzero" stroke="#474C59">
            <rect id="控件/选择/复选未选" stroke-width="1.2" x="0.6" y="0.6" width="11.8" height="11.8" rx="2"></rect>
            <path d="M5.85905234,8.7979798 C5.76765687,8.7979798 5.67958441,8.76368491 5.61318904,8.70155706 L3.72072047,6.93017364 C3.57894987,6.79749668 3.5740688,6.57761625 3.70978819,6.43906127 C3.84550757,6.30051279 4.07046958,6.29580908 4.21224665,6.42847956 L5.82799456,7.9407958 L8.75896564,4.45994272 C8.88374627,4.31179218 9.10773207,4.29062226 9.25927127,4.41251638 C9.41081693,4.5344105 9.4326815,4.75331127 9.3078944,4.90146829 L6.13361369,8.67138197 C6.07073527,8.74605088 5.97894544,8.79171251 5.88013465,8.79739589 C5.87311376,8.79778173 5.86608374,8.7979798 5.85905234,8.7979798 L5.85905234,8.7979798 Z" id="Shape" stroke-width="0.6" fill="#474C59"></path>
        </g>
    </g>
</svg>