<?xml version="1.0" encoding="UTF-8"?>
<svg width="18px" height="18px" viewBox="0 0 18 18" version="1.1" xmlns="http://www.w3.org/2000/svg" xmlns:xlink="http://www.w3.org/1999/xlink">
    <title>云盘 1.2备份</title>
    <g id="云盘-1.2备份" stroke="none" stroke-width="1" fill="none" fill-rule="evenodd">
        <path d="M8.2881491,4.1 C9.64480207,4.1 10.8980644,4.71090402 11.767594,5.72454696 C13.3901841,5.93364833 14.4356757,6.37755815 15.1897752,7.10099611 C15.9396066,7.8203395 16.4,8.81589254 16.4,9.91666667 C16.4,11.0149014 15.9419932,12.0084245 15.2037522,12.7278756 C14.4598402,13.4528533 13.4317909,13.9 12.296964,13.9 L12.296964,13.9 L4.26710132,13.9 C3.53333822,13.9 2.87027127,13.5880235 2.38983759,13.0873465 C1.90062572,12.5775215 1.6,11.8726736 1.6,11.0952381 C1.6,10.5032512 1.77548971,9.94898443 2.07920007,9.49124912 C2.38419503,9.03157775 2.81854878,8.66900649 3.33361498,8.46694735 C3.92253517,6.88773194 4.51400483,5.89968314 5.33715656,5.19828844 C6.14337388,4.51132328 7.17239028,4.1 8.2881491,4.1 Z" id="形状" stroke="#3A8BFF" stroke-width="1.2" fill-rule="nonzero"></path>
        <path d="M12.2666784,5.9275 C10.9601252,5.9275 9.8058022,6.60564952 9.11111111,7.64210766" id="路径" stroke="#3A8BFF" stroke-width="1.2" stroke-linecap="round" stroke-linejoin="round"></path>
    </g>
</svg>