<?xml version="1.0" encoding="UTF-8"?>
<svg width="18px" height="18px" viewBox="0 0 18 18" version="1.1" xmlns="http://www.w3.org/2000/svg" xmlns:xlink="http://www.w3.org/1999/xlink">
    <!-- Generator: Sketch 61.2 (89653) - https://sketch.com -->
    <title>云盘 1.2</title>
    <desc>Created with Sketch.</desc>
    <g id="云盘-1.2" stroke="none" stroke-width="1" fill="none" fill-rule="evenodd">
        <path d="M12.2320717,5.93382406 L11.9507687,5.93808046 L11.767594,5.72454696 C10.8828816,4.69320492 9.62350423,4.1 8.2881491,4.1 C6.06140149,4.1 4.14245218,5.74816763 3.70362434,8.02208242 L3.64104756,8.34634235 L3.33361498,8.46694735 C2.30047807,8.8722443 1.6,9.91612188 1.6,11.0952381 C1.6,12.6496788 2.79976844,13.9 4.26710132,13.9 L12.296964,13.9 C14.5664209,13.9 16.4,12.1130895 16.4,9.91666667 C16.4,7.72024381 14.5664209,5.93333333 12.296964,5.93333333 C12.2644872,5.93341528 12.2644872,5.93341528 12.2320717,5.93382406 Z" id="形状" stroke="#474C59" stroke-width="1.2" fill-rule="nonzero"></path>
        <path d="M12.2666784,5.9275 C10.9601252,5.9275 9.8058022,6.60564952 9.11111111,7.64210766" id="路径" stroke="#474C59" stroke-width="1.2" stroke-linecap="round" stroke-linejoin="round"></path>
    </g>
</svg>