<?xml version="1.0" encoding="UTF-8"?>
<svg width="18px" height="18px" viewBox="0 0 18 18" version="1.1" xmlns="http://www.w3.org/2000/svg" xmlns:xlink="http://www.w3.org/1999/xlink">
    <title>icon/富文本/删除选中列</title>
    <g id="icon/富文本/删除选中列" stroke="none" stroke-width="1" fill="none" fill-rule="evenodd">
        <g id="删除选中行" transform="translate(9.000000, 9.000000) rotate(-270.000000) translate(-9.000000, -9.000000) translate(2.500000, 2.500000)" fill="#474C59" fill-rule="nonzero">
            <path d="M5.84892101,8.35714286 C6.15658563,8.35714286 6.40683396,8.59764126 6.40683395,8.89447261 L6.40683395,11.7620368 C6.436676,11.923358 6.39269383,12.0895649 6.28696642,12.2150113 C6.18123901,12.3404577 6.02488248,12.4119543 5.86083759,12.4098658 L0.55795628,12.4098658 C0.41256777,12.4124748 0.272099908,12.3572096 0.16746586,12.2562327 C0.0628318108,12.1552558 0.00260630067,12.0168421 4.33291026e-05,11.8714528 C4.33291026e-05,11.5746214 0.249208337,11.334123 0.55795628,11.334123 L5.29100806,11.334123 L5.29100806,8.89447261 C5.29100806,8.59764126 5.54017307,8.35714286 5.84892101,8.35714286 Z M8.14825368,8.11952821 L9.68766008,6.5216222 L8.14933701,4.92479951 C7.93831185,4.70342274 7.93831185,4.35534822 8.14933701,4.13397145 C8.24830156,4.03004791 8.38553642,3.97122878 8.52904281,3.97122878 C8.6725492,3.97122878 8.80978405,4.03004791 8.90874861,4.13397145 L10.4492383,5.73296078 L11.9886447,4.13505478 C12.0876414,4.03078495 12.2251127,3.97174245 12.3688922,3.97174245 C12.5126717,3.97174245 12.650143,4.03078495 12.7491397,4.13505478 C12.9594773,4.35628763 12.9594773,4.70356665 12.7491397,4.92479951 L11.2097333,6.52053887 L12.7491397,8.11952821 C12.9594773,8.34076106 12.9594773,8.68804008 12.7491397,8.90927294 C12.650143,9.01354277 12.5126717,9.07258526 12.3688922,9.07258526 C12.2251127,9.07258526 12.0876414,9.01354277 11.9886447,8.90927294 L10.4492383,7.31136693 L8.90874861,8.90927294 C8.80975194,9.01354277 8.67228062,9.07258526 8.52850114,9.07258526 C8.38472167,9.07258526 8.24725035,9.01354277 8.14825368,8.90927294 C7.93722852,8.68789617 7.93722852,8.33982165 8.14825368,8.11844488 L8.14825368,8.11952821 Z M6.41654056,5.57149455 C6.58553943,5.57149455 6.74153839,5.62479284 6.83362112,5.7138571 L7.47061687,6.33239786 C7.57549789,6.43356832 7.57549789,6.56574433 7.47061687,6.66691479 L6.83362112,7.28615684 C6.73999468,7.37568723 6.58355169,7.42908608 6.41654056,7.4285194 L0.496163357,7.4285194 C0.227324609,7.43164808 0.00533419814,7.2932762 9.45973458e-13,7.11924902 L9.45973458e-13,5.88006363 C0.00592043408,5.70603345 0.228402679,5.5679709 0.497246687,5.57149455 L6.41654056,5.57149455 Z M5.86083759,0.594285714 C6.16850221,0.594285714 6.41875055,0.832936507 6.41875055,1.12856248 L6.41875055,4.10847233 C6.41875055,4.4030233 6.16958554,4.6427491 5.86083759,4.6427491 C5.71526333,4.64562688 5.57451633,4.59091467 5.46964672,4.49068253 C5.36477711,4.39045038 5.30440222,4.25293455 5.30184133,4.10847233 L5.30184133,1.66176424 L0.55795628,1.66176424 C0.255610424,1.66715914 0.00597063609,1.42857644 4.33291026e-05,1.12856248 C4.33291026e-05,0.832936507 0.249208337,0.594285714 0.55795628,0.594285714 L5.86083759,0.594285714 Z" id="形状"></path>
        </g>
    </g>
</svg>