<svg width="15" height="14" viewBox="0 0 15 14" fill="none" xmlns="http://www.w3.org/2000/svg">
<circle cx="4.4" cy="13.1002" r="0.9" fill="#474C59"/>
<circle cx="11.4" cy="13.1002" r="0.9" fill="#474C59"/>
<path d="M8.25 1.63965H10.9522C12.215 1.63965 12.9141 1.79887 13.4177 2.1173C13.9288 2.43574 14.1844 2.98043 14.1844 3.75138C14.1844 4.22903 14.0453 4.63546 13.7672 4.97065C13.4966 5.30585 13.0945 5.54887 12.5608 5.69971C13.8537 5.9511 14.5001 6.65501 14.5001 7.81144C14.5001 9.40362 13.3237 10.1997 10.971 10.1997H8.25V9.68434H8.49805C8.76113 9.68434 8.94529 9.62987 9.05052 9.52093C9.15576 9.412 9.20837 9.22764 9.20837 8.96786V3.02233C9.20837 2.60334 9.15952 2.35613 9.0618 2.28071C8.9716 2.19691 8.78368 2.15501 8.49805 2.15501H8.25V1.63965ZM10.2457 2.31842V5.46088H10.7042C11.5761 5.46088 12.0271 5.33937 12.4255 5.09635C12.8314 4.85334 13.0344 4.41758 13.0344 3.78909C13.0344 3.23602 12.8615 2.85473 12.5157 2.64524C12.1775 2.42736 11.6062 2.31842 10.8019 2.31842H10.2457ZM10.2457 6.03909V8.85473C10.2457 9.16479 10.2833 9.35753 10.3584 9.43294C10.4336 9.50836 10.4561 9.54607 10.7944 9.54607C11.749 9.54607 12.2564 9.4078 12.6848 9.13127C13.1208 8.85473 13.3388 8.39384 13.3388 7.74859C13.3388 7.1201 13.117 6.68015 12.6736 6.42875C12.2376 6.16898 11.734 6.03909 10.7944 6.03909H10.2457Z" fill="#474C59"/>
<path d="M3.8825 1.2002H4.41992L6.81022 8.79237C6.90794 9.09405 7.01693 9.32031 7.1372 9.47115C7.25746 9.6136 7.42659 9.68483 7.64457 9.68483H7.7686V10.2002H5.02877V9.68483C5.33696 9.68483 5.53991 9.65969 5.63762 9.60941C5.73534 9.55913 5.7842 9.46696 5.7842 9.33288C5.7842 9.20718 5.73534 8.9893 5.63762 8.67925L5.13025 7.0326H2.7099L2.1236 8.88036C2.06346 9.06472 2.0334 9.20718 2.0334 9.30774C2.0334 9.4502 2.08226 9.55075 2.17997 9.60941C2.28521 9.65969 2.49191 9.68483 2.8001 9.68483V10.2002H0.5V9.68483C0.785633 9.68483 0.988583 9.62617 1.10885 9.50885C1.22912 9.39154 1.35314 9.13176 1.48092 8.72953L3.8825 1.2002ZM2.91285 6.42925H4.9273L3.8825 3.39158L2.91285 6.42925Z" fill="#474C59"/>
</svg>
