<?xml version="1.0" encoding="UTF-8"?>
<svg width="20px" height="20px" viewBox="0 0 20 20" version="1.1" xmlns="http://www.w3.org/2000/svg" xmlns:xlink="http://www.w3.org/1999/xlink">
    <!-- Generator: Sketch 52.5 (67469) - http://www.bohemiancoding.com/sketch -->
    <title>合并形状</title>
    <desc>Created with Sketch.</desc>
    <g id="Symbols" stroke="none" stroke-width="1" fill="none" fill-rule="evenodd">
        <g id="icon/图片放大" fill="#F1F1F1" fill-rule="nonzero">
            <path d="M15.8699048,14.8144484 L19.4748737,18.4194174 C19.767767,18.7123106 19.767767,19.1871843 19.4748737,19.4800776 C19.1819805,19.7729708 18.7071068,19.7729708 18.4142136,19.4800776 L14.8088121,15.8746761 C13.2411885,17.2005911 11.2139503,18 9,18 C4.02943725,18 0,13.9705627 0,9 C0,4.02943725 4.02943725,0 9,0 C13.9705627,0 18,4.02943725 18,9 C18,11.2166046 17.1986731,13.2460493 15.8699048,14.8144484 Z M9,16.5405405 C13.1645255,16.5405405 16.5405405,13.1645255 16.5405405,9 C16.5405405,4.83547445 13.1645255,1.45945946 9,1.45945946 C4.83547445,1.45945946 1.45945946,4.83547445 1.45945946,9 C1.45945946,13.1645255 4.83547445,16.5405405 9,16.5405405 Z M8.25,8.25 L8.25,5.75 C8.25,5.33578644 8.58578644,5 9,5 C9.41421356,5 9.75,5.33578644 9.75,5.75 L9.75,8.25 L12.25,8.25 C12.6642136,8.25 13,8.58578644 13,9 C13,9.41421356 12.6642136,9.75 12.25,9.75 L9.75,9.75 L9.75,12.25 C9.75,12.6642136 9.41421356,13 9,13 C8.58578644,13 8.25,12.6642136 8.25,12.25 L8.25,9.75 L5.75,9.75 C5.33578644,9.75 5,9.41421356 5,9 C5,8.58578644 5.33578644,8.25 5.75,8.25 L8.25,8.25 Z" id="合并形状"></path>
        </g>
    </g>
</svg>