<?xml version="1.0" encoding="UTF-8"?>
<svg width="18px" height="18px" viewBox="0 0 18 18" version="1.1" xmlns="http://www.w3.org/2000/svg" xmlns:xlink="http://www.w3.org/1999/xlink">
    <!-- Generator: Sketch 60.1 (88133) - https://sketch.com -->
    <title>icon/富文本/格式刷</title>
    <desc>Created with Sketch.</desc>
    <g id="icon/富文本/格式刷" stroke="none" stroke-width="1" fill="none" fill-rule="evenodd">
        <g id="格式刷" transform="translate(2.000000, 3.000000)" fill="#474C59" fill-rule="nonzero">
            <path d="M9.9505,1.5225533 L12.6936289,0.0038071066 L14,1.54740609 L11.9472578,3.72916751 L9.9505,1.52256853 L9.9505,1.5225533 Z M7.86274222,0.694233503 C8.66511333,0.788467005 12.5702422,5.35155838 12.4696133,5.86381218 C12.3689844,6.37691878 10.1893556,7.7954467 10.1893556,7.7954467 L5.24472667,2.34062437 C5.24472667,2.34062437 7.06035556,0.599162437 7.86272667,0.694248731 L7.86274222,0.694233503 Z M4.77137111,3.01132995 L9.54624222,8.34280203 L6.61587111,11.9961929 L5.68434189e-14,3.95958883 C5.68434189e-14,3.95958883 1.31162889,3.9073401 2.40362889,3.63150761 C3.11937111,3.45161421 4.77138667,3.01132995 4.77138667,3.01132995 L4.77137111,3.01132995 Z" id="形状"></path>
        </g>
    </g>
</svg>