<svg width="18" height="18" viewBox="0 0 18 18" fill="none" xmlns="http://www.w3.org/2000/svg">
<path fill-rule="evenodd" clip-rule="evenodd" d="M2.69995 3.63951C2.69995 3.28632 2.98627 3 3.33947 3C3.69266 3 3.97898 3.28632 3.97898 3.63952V8.21008H10.4209V3.63951C10.4209 3.28632 10.7072 3 11.0604 3C11.4136 3 11.7 3.28632 11.7 3.63952V14.3605C11.7 14.7137 11.4136 15 11.0604 15C10.7072 15 10.4209 14.7137 10.4209 14.3605V9.40336H3.97898V14.3605C3.97898 14.7137 3.69266 15 3.33947 15C2.98627 15 2.69995 14.7137 2.69995 14.3605V3.63951ZM13.618 9.20397C13.942 9.00597 14.212 8.79897 14.428 8.57397H15.22V15H14.167V9.84297C13.78 10.194 13.294 10.455 12.7 10.626V9.58197C12.988 9.50997 13.294 9.38398 13.618 9.20397Z" fill="#474C59"/>
</svg>
