<svg width="18" height="18" viewBox="0 0 18 18" fill="none" xmlns="http://www.w3.org/2000/svg">
<path fill-rule="evenodd" clip-rule="evenodd" d="M1.80005 3.63951C1.80005 3.28632 2.08637 3 2.43956 3C2.79276 3 3.07908 3.28632 3.07908 3.63952V8.21008H9.52102V3.63951C9.52102 3.28632 9.80734 3 10.1605 3C10.5137 3 10.8 3.28632 10.8 3.63952V14.3605C10.8 14.7137 10.5137 15 10.1605 15C9.80734 15 9.52102 14.7137 9.52102 14.3605V9.40336H3.07908V14.3605C3.07908 14.7137 2.79276 15 2.43956 15C2.08637 15 1.80005 14.7137 1.80005 14.3605V3.63951ZM12.466 9.15C12.889 8.682 13.447 8.448 14.14 8.448C14.761 8.448 15.274 8.628 15.679 8.988C16.075 9.348 16.273 9.807 16.273 10.383C16.273 10.941 16.057 11.445 15.643 11.904C15.391 12.174 14.941 12.516 14.311 12.939C13.654 13.371 13.258 13.749 13.114 14.073H16.282V15H11.8C11.8 14.343 12.007 13.776 12.439 13.29C12.673 13.02 13.168 12.624 13.915 12.111C14.329 11.823 14.617 11.58 14.797 11.391C15.076 11.076 15.22 10.734 15.22 10.374C15.22 10.023 15.121 9.762 14.941 9.591C14.752 9.42 14.473 9.339 14.104 9.339C13.708 9.339 13.411 9.474 13.213 9.744C13.015 9.996 12.907 10.383 12.889 10.887H11.836C11.845 10.167 12.052 9.591 12.466 9.15Z" fill="#474C59"/>
</svg>
