<svg width="18" height="18" viewBox="0 0 18 18" fill="none" xmlns="http://www.w3.org/2000/svg">
<path fill-rule="evenodd" clip-rule="evenodd" d="M1.69995 3.63951C1.69995 3.28632 1.98627 3 2.33947 3C2.69266 3 2.97898 3.28632 2.97898 3.63952V8.21008H9.42092V3.63951C9.42092 3.28632 9.70724 3 10.0604 3C10.4136 3 10.7 3.28632 10.7 3.63952V14.3605C10.7 14.7137 10.4136 15 10.0604 15C9.70724 15 9.42092 14.7137 9.42092 14.3605V9.40336H2.97898V14.3605C2.97898 14.7137 2.69266 15 2.33947 15C1.98627 15 1.69995 14.7137 1.69995 14.3605V3.63951ZM12.546 8.851C12.951 8.491 13.473 8.32 14.103 8.32C14.751 8.32 15.282 8.473 15.678 8.788C16.065 9.103 16.263 9.535 16.263 10.093C16.263 10.795 15.903 11.263 15.192 11.497C15.57 11.614 15.867 11.785 16.065 12.019C16.281 12.262 16.389 12.577 16.389 12.955C16.389 13.549 16.182 14.035 15.768 14.413C15.336 14.8 14.769 14.998 14.067 14.998C13.401 14.998 12.861 14.827 12.456 14.485C12.006 14.107 11.754 13.549 11.7 12.829H12.771C12.789 13.243 12.915 13.567 13.167 13.792C13.392 13.999 13.689 14.107 14.058 14.107C14.463 14.107 14.787 13.99 15.021 13.765C15.228 13.558 15.336 13.306 15.336 13C15.336 12.631 15.219 12.361 15.003 12.19C14.787 12.01 14.472 11.929 14.058 11.929H13.608V11.137H14.058C14.436 11.137 14.724 11.056 14.922 10.894C15.111 10.732 15.21 10.489 15.21 10.174C15.21 9.859 15.12 9.625 14.949 9.463C14.76 9.301 14.481 9.22 14.112 9.22C13.734 9.22 13.446 9.31 13.239 9.499C13.023 9.688 12.897 9.976 12.861 10.363H11.826C11.88 9.715 12.114 9.211 12.546 8.851Z" fill="#474C59"/>
</svg>
