<svg width="18" height="18" viewBox="0 0 18 18" fill="none" xmlns="http://www.w3.org/2000/svg">
<path fill-rule="evenodd" clip-rule="evenodd" d="M1.69995 3.63951C1.69995 3.28632 1.98627 3 2.33947 3C2.69266 3 2.97898 3.28632 2.97898 3.63952V8.21008H9.42092V3.63951C9.42092 3.28632 9.70724 3 10.0604 3C10.4136 3 10.7 3.28632 10.7 3.63952V14.3605C10.7 14.7137 10.4136 15 10.0604 15C9.70724 15 9.42092 14.7137 9.42092 14.3605V9.40336H2.97898V14.3605C2.97898 14.7137 2.69266 15 2.33947 15C1.98627 15 1.69995 14.7137 1.69995 14.3605V3.63951ZM11.7 12.624L14.841 8.57397H15.804V12.786H16.758V13.623H15.804V15H14.805V13.623H11.7V12.624ZM14.805 9.90597H14.778L12.555 12.786H14.805V9.90597Z" fill="#474C59"/>
</svg>
