<svg width="19" height="18" viewBox="0 0 19 18" fill="none" xmlns="http://www.w3.org/2000/svg">
<path fill-rule="evenodd" clip-rule="evenodd" d="M2.9 4.00039C2.9 3.11674 3.61635 2.40039 4.5 2.40039H14.5C15.3837 2.40039 16.1 3.11674 16.1 4.00039V8.00039C16.1 8.88405 15.3837 9.60039 14.5 9.60039H4.5C3.61635 9.60039 2.9 8.88405 2.9 8.00039V4.00039ZM4.5 3.60039C4.27909 3.60039 4.1 3.77948 4.1 4.00039V8.00039C4.1 8.2213 4.27909 8.40039 4.5 8.40039H14.5C14.7209 8.40039 14.9 8.2213 14.9 8.00039V4.00039C14.9 3.77948 14.7209 3.60039 14.5 3.60039H4.5ZM2.89998 12.0004C2.89998 11.669 3.16861 11.4004 3.49998 11.4004H15.5C15.8314 11.4004 16.1 11.669 16.1 12.0004C16.1 12.3317 15.8314 12.6004 15.5 12.6004H3.49998C3.16861 12.6004 2.89998 12.3317 2.89998 12.0004ZM3.49998 14.4004C3.16861 14.4004 2.89998 14.669 2.89998 15.0004C2.89998 15.3317 3.16861 15.6004 3.49998 15.6004H9.49998C9.83135 15.6004 10.1 15.3317 10.1 15.0004C10.1 14.669 9.83135 14.4004 9.49998 14.4004H3.49998Z" fill="#474C59"/>
</svg>
