<?xml version="1.0" encoding="UTF-8"?>
<svg width="18px" height="18px" viewBox="0 0 18 18" version="1.1" xmlns="http://www.w3.org/2000/svg" xmlns:xlink="http://www.w3.org/1999/xlink">
    <!-- Generator: Sketch 61.2 (89653) - https://sketch.com -->
    <title>icon/富文本/斜体</title>
    <desc>Created with Sketch.</desc>
    <g id="icon/富文本/斜体" stroke="none" stroke-width="1" fill="none" fill-rule="evenodd">
        <g id="分组-7" transform="translate(2.000000, 2.000000)">
            <rect id="矩形" fill-rule="nonzero" x="0" y="0" width="14" height="14"></rect>
            <path d="M5.54212641,1.16666667 L9.91666667,1.16666667 L9.82883918,1.8690651 L9.49233609,1.8690651 C9.07731353,1.8690651 8.78022117,1.95757784 8.60105012,2.13460597 C8.42187906,2.3116341 8.29302282,2.7142243 8.21447752,3.34238864 L7.27408081,10.8631914 C7.21410076,11.3428805 7.23437821,11.6740895 7.33491376,11.8568282 C7.4354493,12.0395669 7.72687446,12.1309349 8.20919798,12.1309349 L8.54570107,12.1309349 L8.45787359,12.8333333 L4.08333333,12.8333333 L4.17116082,12.1309349 L4.52448907,12.1309349 C4.93951163,12.1309349 5.23201472,12.0566984 5.40200713,11.9082232 C5.57199953,11.759748 5.69126825,11.4114075 5.75981687,10.8631914 L6.72163492,3.17107195 C6.78589926,2.65711931 6.7674069,2.3116341 6.66615731,2.13460597 C6.56490772,1.95757784 6.27873387,1.8690651 5.80762718,1.8690651 L5.45429893,1.8690651 L5.54212641,1.16666667 Z" id="I" fill="#474C59"></path>
        </g>
    </g>
</svg>