<svg width="19" height="18" viewBox="0 0 19 18" fill="none" xmlns="http://www.w3.org/2000/svg">
    <rect width="13" height="1.2" rx="0.6" transform="matrix(-1 0 0 1 16 3.3999)" fill="#474C59"/>
    <rect width="4.5" height="1.2" rx="0.6" transform="matrix(-1 0 0 1 16 8.3999)" fill="#474C59"/>
    <rect width="6" height="1.2" rx="0.6" transform="matrix(-1 0 0 1 9 8.3999)" fill="#474C59"/>
    <rect width="13" height="1.2" rx="0.6" transform="matrix(-1 0 0 1 16 13.3999)" fill="#474C59"/>
    <path fill-rule="evenodd" clip-rule="evenodd" d="M10.0757 9.42915L10.1464 9.35844C10.3417 9.16317 10.3417 8.84659 10.1464 8.65133L10.0757 8.58062L10.005 8.50991L8.44939 6.95427C8.21508 6.71996 7.83518 6.71996 7.60086 6.95427C7.36655 7.18859 7.36655 7.56849 7.60086 7.8028L8.80294 9.00488L7.53015 10.2777C7.33489 10.4729 7.33489 10.7895 7.53015 10.9848L7.67157 11.1262C7.86684 11.3215 8.18342 11.3215 8.37868 11.1262L10.0757 9.42915Z" fill="#474C59"/>
</svg>
