<svg width="19" height="18" viewBox="0 0 19 18" fill="none" xmlns="http://www.w3.org/2000/svg">
<path fill-rule="evenodd" clip-rule="evenodd" d="M11.1403 5.25804C11.2266 4.93809 11.0369 4.60957 10.7167 4.52428C10.3965 4.43899 10.067 4.62923 9.98074 4.94918L8.92236 8.87565L7.86399 12.8021C7.77775 13.1221 7.96741 13.4506 8.28762 13.5359C8.60782 13.6212 8.93732 13.4309 9.02356 13.111L10.0819 9.18451L11.1403 5.25804ZM5.94764 5.6972C6.18265 5.93081 6.18265 6.30958 5.94764 6.5432L3.45283 9.0232L5.94764 11.5032C6.18265 11.7368 6.18265 12.1156 5.94764 12.3492C5.71263 12.5828 5.3316 12.5828 5.09659 12.3492L2.17626 9.4462C1.94125 9.21259 1.94125 8.83382 2.17626 8.6002L5.09659 5.6972C5.3316 5.46358 5.71263 5.46358 5.94764 5.6972ZM13.0529 5.6972C12.8178 5.93081 12.8178 6.30958 13.0529 6.5432L15.5477 9.0232L13.0529 11.5032C12.8178 11.7368 12.8178 12.1156 13.0529 12.3492C13.2879 12.5828 13.6689 12.5828 13.9039 12.3492L16.8242 9.4462C17.0593 9.21259 17.0593 8.83382 16.8242 8.6002L13.9039 5.6972C13.6689 5.46358 13.2879 5.46358 13.0529 5.6972Z" fill="#474C59"/>
</svg>
