<?xml version="1.0" encoding="UTF-8"?>
<svg width="18px" height="18px" viewBox="0 0 18 18" version="1.1" xmlns="http://www.w3.org/2000/svg" xmlns:xlink="http://www.w3.org/1999/xlink">
    <!-- Generator: Sketch 61.2 (89653) - https://sketch.com -->
    <title>icon/富文本/行间距1.2</title>
    <desc>Created with Sketch.</desc>
    <g id="icon/富文本/行间距1.2" stroke="none" stroke-width="1" fill="none" fill-rule="evenodd">
        <g id="分组" transform="translate(2.000000, 2.000000)" fill-rule="nonzero">
            <rect id="矩形" x="0" y="0" width="14" height="14"></rect>
            <rect id="矩形" fill="#474C59" x="5.5" y="1.4" width="8" height="1.2" rx="0.6"></rect>
            <rect id="矩形-copy-5" fill="#474C59" x="5.5" y="6.4" width="8" height="1.2" rx="0.6"></rect>
            <rect id="矩形-copy-7" fill="#474C59" x="5.5" y="11.4" width="8" height="1.2" rx="0.6"></rect>
        </g>
        <rect id="矩形-copy-6" fill="#474C59" fill-rule="nonzero" transform="translate(4.479747, 6.000000) rotate(-270.000000) translate(-4.479747, -6.000000) " x="2.47974747" y="5.4" width="4" height="1.2" rx="0.6"></rect>
        <rect id="矩形-copy-6备份" fill="#474C59" fill-rule="nonzero" transform="translate(4.470000, 12.000000) rotate(-90.000000) translate(-4.470000, -12.000000) " x="2.47" y="11.4" width="4" height="1.2" rx="0.6"></rect>
        <path d="M5.62487373,3.12487373 C5.95624458,3.12487373 6.22487373,3.39350288 6.22487373,3.72487373 C6.22487373,4.05624458 5.95624458,4.32487373 5.62487373,4.32487373 L3.92387373,4.32487373 L3.92487373,6.12487373 C3.92487373,6.40101611 3.70101611,6.62487373 3.42487373,6.62487373 L3.22487373,6.62487373 C2.94873136,6.62487373 2.72487373,6.40101611 2.72487373,6.12487373 L2.72487373,3.62487373 C2.72487373,3.34873136 2.94873136,3.12487373 3.22487373,3.12487373 L5.62487373,3.12487373 Z" id="Combined-Shape" fill="#474C59" transform="translate(4.474874, 4.874874) rotate(-315.000000) translate(-4.474874, -4.874874) "></path>
        <path d="M5.62487373,11.2751263 C5.95624458,11.2751263 6.22487373,11.5437554 6.22487373,11.8751263 C6.22487373,12.2064971 5.95624458,12.4751263 5.62487373,12.4751263 L3.92387373,12.4751263 L3.92487373,14.2751263 C3.92487373,14.5512686 3.70101611,14.7751263 3.42487373,14.7751263 L3.22487373,14.7751263 C2.94873136,14.7751263 2.72487373,14.5512686 2.72487373,14.2751263 L2.72487373,11.7751263 C2.72487373,11.4989839 2.94873136,11.2751263 3.22487373,11.2751263 L5.62487373,11.2751263 Z" id="Combined-Shape备份" fill="#474C59" transform="translate(4.474874, 13.025126) rotate(-135.000000) translate(-4.474874, -13.025126) "></path>
    </g>
</svg>