<?xml version="1.0" encoding="UTF-8"?>
<svg width="18px" height="18px" viewBox="0 0 18 18" version="1.1" xmlns="http://www.w3.org/2000/svg" xmlns:xlink="http://www.w3.org/1999/xlink">
    <title>链接1.2蓝</title>
    <g id="链接1.2蓝" stroke="none" stroke-width="1" fill="none" fill-rule="evenodd" stroke-linecap="round">
        <g id="链接1.2" transform="translate(2.000000, 6.000000)" stroke="#3A8BFF" stroke-width="1.2">
            <path d="M4.9,6 L3.1,6 C1.38791728,6 0,4.6568542 0,3 C0,1.34314575 1.38791728,0 3.1,0 L4.9,0 C6.61208272,0 8,1.34314575 8,3" id="路径"></path>
            <path d="M10.9,6 L9.1,6 C7.3879173,6 6,4.6568542 6,3 C6,1.34314575 7.3879173,-1.77635684e-15 9.1,-1.77635684e-15 L10.9,-1.77635684e-15 C12.6120827,-1.77635684e-15 14,1.34314575 14,3" id="路径-copy" transform="translate(10.000000, 3.000000) rotate(-180.000000) translate(-10.000000, -3.000000) "></path>
        </g>
    </g>
</svg>