<svg width="34" height="18" viewBox="0 0 34 18" fill="none" xmlns="http://www.w3.org/2000/svg">
<path d="M12.5646 6V7.70127H9.82686L9.59084 11.2436C9.54364 11.8573 9.52004 12.3895 9.52004 12.84C9.52004 13.9199 9.64788 14.5782 9.90356 14.8151C10.1592 15.0521 10.468 15.1706 10.8299 15.1706C11.5852 15.1706 12.0336 14.7006 12.1752 13.7606H12.6C12.3404 15.9202 11.4671 17 9.98026 17C9.28796 17 8.73137 16.7903 8.31048 16.3708C7.88959 15.9513 7.67915 15.3298 7.67915 14.5064C7.67915 13.9626 7.76175 12.8129 7.92696 11.0572L8.24557 7.70127H5.74385C5.57864 10.529 5.37999 12.5953 5.14791 13.9004C4.91583 15.2055 4.66016 16.0484 4.38087 16.429C4.10159 16.8097 3.72201 17 3.24212 17C2.88023 17 2.57538 16.8951 2.32757 16.6854C2.07975 16.4756 1.95585 16.1999 1.95585 15.8581C1.95585 15.5318 2.16826 15.0851 2.59308 14.518C3.21458 13.6946 3.67874 12.8381 3.98555 11.9486C4.29237 11.0591 4.52445 9.64337 4.68179 7.70127H3.87935C3.23425 7.70127 2.74059 7.84304 2.39837 8.12659C2.05615 8.41014 1.73164 8.81603 1.42482 9.34428H1C1.22815 8.51306 1.52316 7.82945 1.88505 7.29343C2.24693 6.75741 2.61865 6.40784 3.0002 6.2447C3.38176 6.08157 4.06029 6 5.03581 6H12.5646Z" fill="#474C59"/>
<path d="M15.9688 6.39453V3.22461C15.4414 3.38281 14.6387 3.53516 14.082 3.60547V3.96875C14.7559 4.01562 14.791 4.09766 14.791 4.73633V10.7246C15.4766 11.0234 16.0156 11.1348 16.5781 11.1348C18.1309 11.1348 19.4023 9.94531 19.4023 8.29883C19.4023 7.02734 18.4414 5.94922 17.1816 5.94922C17 5.94922 16.8418 6.00781 16.5898 6.13086L15.9688 6.39453ZM15.9688 6.79883C16.1504 6.72852 16.3789 6.66992 16.6016 6.66992C17.3867 6.66992 18.1016 7.29102 18.1016 8.62109C18.1016 9.95703 17.5391 10.6543 16.8184 10.6543C16.3613 10.6426 16.0977 10.3027 16.0273 10.1094C15.9922 10.0156 15.9688 9.89844 15.9688 9.74023V6.79883ZM24.2012 9.70508C23.8203 10.0508 23.4102 10.209 22.9648 10.209C22.1855 10.209 21.4531 9.59375 21.4297 8.32227C22.6074 8.27539 23.9727 8.16992 24.166 8.13477C24.4062 8.10547 24.4531 7.96484 24.4531 7.72461C24.4648 6.81055 23.6973 5.94922 22.7129 5.94922H22.7012C22.127 5.94922 21.5293 6.25977 21.0605 6.74023C20.6152 7.19727 20.2637 7.90625 20.2637 8.74414C20.2637 10.0391 21.084 11.1348 22.4961 11.1348C22.9297 11.1348 23.7324 10.918 24.4062 10.0039L24.2012 9.70508ZM22.4844 6.41797C22.9766 6.41797 23.293 6.95703 23.2812 7.51953C23.2812 7.70117 23.2168 7.74805 23.041 7.74805C22.4961 7.77148 22.0039 7.7832 21.4766 7.7832C21.5996 6.93359 22.0156 6.41797 22.4844 6.41797ZM28.2031 10.6016L28.0977 10.209C27.9277 10.291 27.7109 10.3613 27.4824 10.3613C27.2305 10.3613 26.8613 10.2324 26.8613 9.36523V6.63477H27.9395C28.1094 6.53516 28.1328 6.20117 28.0215 6.07812H26.8613V4.55469L26.6914 4.49609L25.6719 5.31055V6.07812H25.2148L24.9043 6.48828L24.9512 6.63477H25.6719V9.75195C25.6719 10.7129 26.1289 11.1348 26.8965 11.1348C27.002 11.1348 27.1719 11.082 27.377 11L28.2031 10.6016ZM33.3828 10.5312L33.2656 10.1621C33.1543 10.209 33.0137 10.2676 32.8672 10.2676C32.6973 10.2676 32.5215 10.1094 32.5215 9.59375V7.66602C32.5215 7.08594 32.4102 6.63477 31.9766 6.2832C31.7012 6.05469 31.3672 5.94922 30.9453 5.94922C30.3008 6.07812 29.5566 6.48828 29.1934 6.74023C28.9531 6.92188 28.8242 7.05078 28.8242 7.23242C28.8242 7.53125 29.1816 7.77148 29.4336 7.77148C29.627 7.77148 29.7734 7.68945 29.8438 7.44922C29.9258 7.12109 30.0371 6.85742 30.1543 6.70508C30.2773 6.57031 30.4062 6.5 30.5879 6.5C31.0684 6.5 31.3672 6.92188 31.3672 7.63086V7.86523C31.1152 8.09375 30.2539 8.39844 29.6152 8.60938C29.0293 8.83789 28.7422 9.1543 28.7422 9.72852C28.7422 10.4375 29.3164 11.1348 30.1777 11.1348C30.4531 11.1348 30.9688 10.7598 31.4023 10.4727C31.4609 10.6133 31.5371 10.7715 31.6895 10.918C31.8242 11.0352 32.041 11.1348 32.2812 11.1348L33.3828 10.5312ZM31.3672 10.0508C31.1738 10.209 30.9336 10.3262 30.7051 10.3262C30.4062 10.3262 29.9902 10.0859 29.9902 9.51172C29.9902 9.13086 30.1895 8.92578 30.5645 8.74414C30.793 8.62109 31.1387 8.44531 31.3789 8.33398L31.3672 10.0508Z" fill="#FD9026"/>
</svg>
