<?xml version="1.0" encoding="UTF-8"?>
<svg width="12px" height="12px" viewBox="0 0 12 12" version="1.1" xmlns="http://www.w3.org/2000/svg" xmlns:xlink="http://www.w3.org/1999/xlink">
    <title>icon/富文本/图片备份</title>
    <g id="控件" stroke="none" stroke-width="1" fill="none" fill-rule="evenodd">
        <g id="控件/工具栏1.2/展开（新）" transform="translate(-1005.000000, -3.000000)" fill="#474C59" fill-rule="nonzero">
            <g id="编组" transform="translate(1002.000000, 0.000000)">
                <g id="公式" transform="translate(3.000000, 3.300000)">
                    <path d="M11.9633774,0 L11.9633774,1.75993571 L9.13123097,1.75993571 L8.88708041,5.42445938 C8.83825003,6.05932521 8.81383521,6.60980188 8.81383521,7.07590593 C8.81383521,8.19294828 8.94608214,8.87401252 9.21057983,9.11911893 C9.47507762,9.36422534 9.79450469,9.48677669 10.1688708,9.48677669 C10.9501565,9.48677669 11.4140379,9.00058934 11.560529,8.02819986 L12,8.02819986 C11.7314331,10.2622847 10.828085,11.3793103 9.28992879,11.3793103 C8.57375028,11.3793103 7.99796762,11.1623341 7.56256355,10.7283752 C7.12715959,10.2944163 6.90946083,9.65152386 6.90946083,8.79967852 C6.90946083,8.23713921 6.99491268,7.04778817 7.16581893,5.23158971 L7.49542221,1.75993571 L4.90742624,1.75993571 C4.73652,4.68514028 4.53102867,6.82275776 4.29094609,8.1728521 C4.0508635,9.52294655 3.7863697,10.3948694 3.49745676,10.788647 C3.20854382,11.1824245 2.81587227,11.3793103 2.31943031,11.3793103 C1.94506426,11.3793103 1.62970626,11.2708223 1.3733469,11.0538428 C1.11698753,10.8368633 0.988809766,10.5515798 0.988809766,10.1979836 C0.988809766,9.86046 1.20854307,9.39838107 1.64801628,8.81173293 C2.2909493,7.95988759 2.77110726,7.07390141 3.08850458,6.15374781 C3.40590189,5.23359417 3.64598088,3.76900478 3.80874873,1.75993571 L2.97863682,1.75993571 C2.31128862,1.75993571 1.80061214,1.90659556 1.44659207,2.19991963 C1.09257199,2.49324372 0.756868324,2.91313286 0.439471003,3.45959965 L0,3.45959965 C0.236013383,2.59971809 0.541198531,1.89253638 0.9155646,1.33803331 C1.28993066,0.783530245 1.67446394,0.421903241 2.06917599,0.253141438 C2.46388804,0.0843796345 3.16581388,0 4.17497457,0 L11.9633774,0 Z" id="π"></path>
                </g>
            </g>
        </g>
    </g>
</svg>