<?xml version="1.0" encoding="UTF-8"?>
<svg width="18px" height="18px" viewBox="0 0 18 18" version="1.1" xmlns="http://www.w3.org/2000/svg" xmlns:xlink="http://www.w3.org/1999/xlink">
    <title>icon/富文本/合并单元格</title>
    <g id="icon/富文本/合并单元格" stroke="none" stroke-width="1" fill="none" fill-rule="evenodd">
        <g id="拆分单元格" transform="translate(3.500000, 3.000000)">
            <path d="M10.9526299,5.50601918 L8.80419244,5.50601918 L8.80419244,4.22296629 C8.80419244,4.16587495 8.74003771,4.13282206 8.69527859,4.16887976 L6.44240316,5.96274995 C6.40808784,5.98979322 6.40808784,6.04237735 6.44240316,6.06942062 L8.69527859,7.86479322 C8.73854574,7.89934851 8.80419244,7.86779802 8.80419244,7.81070668 L8.80419244,6.52765379 L10.9526299,6.52765379 L10.9526299,5.50601918 Z" id="路径" fill="#474C59" fill-rule="nonzero"></path>
            <path d="M4.53596327,5.50601918 L2.38752577,5.50601918 L2.38752577,4.22296629 C2.38752577,4.16587495 2.32337104,4.13282206 2.27861192,4.16887976 L0.0257364909,5.96274995 C-0.00857883029,5.98979322 -0.00857883029,6.04237735 0.0257364909,6.06942062 L2.27861192,7.86479322 C2.32187907,7.89934851 2.38752577,7.86779802 2.38752577,7.81070668 L2.38752577,6.52765379 L4.53596327,6.52765379 L4.53596327,5.50601918 Z" id="路径备份" fill="#474C59" fill-rule="nonzero" transform="translate(2.267982, 6.016508) scale(-1, 1) translate(-2.267982, -6.016508) "></path>
            <path d="M6.41666667,2.94674556 L6.41666667,1.14319527 C6.41666667,0.766726608 6.69027043,0.461538462 7.02777778,0.461538462 L10.3888889,0.461538462 C10.7263962,0.461538462 11,0.766726608 11,1.14319527 L11,10.8568047 C11,11.2332734 10.7263962,11.5384615 10.3888889,11.5384615 L7.02777778,11.5384615 C6.69027043,11.5384615 6.41666667,11.2332734 6.41666667,10.8568047 L6.41666667,8.98224852" id="路径" stroke="#474C59" stroke-linecap="round" stroke-linejoin="round"></path>
            <path d="M0,2.94674556 L0,1.14319527 C0,0.766726608 0.273603764,0.461538462 0.611111111,0.461538462 L3.97222222,0.461538462 C4.30972957,0.461538462 4.58333333,0.766726608 4.58333333,1.14319527 L4.58333333,10.8568047 C4.58333333,11.2332734 4.30972957,11.5384615 3.97222222,11.5384615 L0.611111111,11.5384615 C0.273603764,11.5384615 0,11.2332734 0,10.8568047 L0,8.98224852" id="路径备份-2" stroke="#474C59" stroke-linecap="round" stroke-linejoin="round" transform="translate(2.291667, 6.000000) scale(-1, 1) translate(-2.291667, -6.000000) "></path>
        </g>
    </g>
</svg>