<svg width="19" height="18" viewBox="0 0 19 18" fill="none" xmlns="http://www.w3.org/2000/svg">
<path fill-rule="evenodd" clip-rule="evenodd" d="M8.10001 3.7C6.77452 3.7 5.70001 4.77452 5.70001 6.1V8.4H8.3C8.63137 8.4 8.9 8.66863 8.9 9C8.9 9.33137 8.63137 9.6 8.3 9.6H5.70001V11.9C5.70001 13.2255 6.77452 14.3 8.10001 14.3H8.30001C8.63138 14.3 8.90001 14.5686 8.90001 14.9C8.90001 15.2314 8.63138 15.5 8.30001 15.5H8.10001C6.11178 15.5 4.50001 13.8882 4.50001 11.9V9.6H3.1C2.76863 9.6 2.5 9.33137 2.5 9C2.5 8.66863 2.76863 8.4 3.1 8.4H4.50001V6.1C4.50001 4.11178 6.11178 2.5 8.10001 2.5H8.30001C8.63138 2.5 8.90001 2.76863 8.90001 3.1C8.90001 3.43137 8.63138 3.7 8.30001 3.7H8.10001ZM10.3 3.1C10.3 2.76863 10.5686 2.5 10.9 2.5H15.9C16.2314 2.5 16.5 2.76863 16.5 3.1C16.5 3.43137 16.2314 3.7 15.9 3.7H10.9C10.5686 3.7 10.3 3.43137 10.3 3.1ZM10.9 8.4C10.5686 8.4 10.3 8.66863 10.3 9C10.3 9.33137 10.5686 9.6 10.9 9.6H15.9C16.2314 9.6 16.5 9.33137 16.5 9C16.5 8.66863 16.2314 8.4 15.9 8.4H10.9ZM10.9 14.3C10.5686 14.3 10.3 14.5686 10.3 14.9C10.3 15.2314 10.5686 15.5 10.9 15.5H15.9C16.2314 15.5 16.5 15.2314 16.5 14.9C16.5 14.5686 16.2314 14.3 15.9 14.3H10.9Z" fill="#474C59"/>
</svg>
