<?xml version="1.0" encoding="UTF-8"?>
<svg width="18px" height="18px" viewBox="0 0 18 18" version="1.1" xmlns="http://www.w3.org/2000/svg" xmlns:xlink="http://www.w3.org/1999/xlink">
    <!-- Generator: Sketch 61.2 (89653) - https://sketch.com -->
    <title>icon/富文本/有序排列 文婷</title>
    <desc>Created with Sketch.</desc>
    <g id="icon/富文本/有序排列-文婷" stroke="none" stroke-width="1" fill="none" fill-rule="evenodd">
        <g id="Group" transform="translate(2.000000, 2.000000)" fill="#474C59">
            <path d="M1.2672,10.24 C1.6128,10.24 1.8864,10.3216 2.0976,10.4896 C2.2992,10.6576 2.4048,10.888 2.4048,11.1808 C2.4048,11.5552 2.2128,11.8096 1.8384,11.9344 C2.04,11.9968 2.1936,12.0928 2.2992,12.2176 C2.4144,12.3472 2.472,12.5152 2.472,12.7168 C2.472,13.0336 2.3616,13.2928 2.1456,13.4944 C1.9152,13.696 1.6128,13.8016 1.248,13.8016 C0.8976,13.8016 0.6144,13.7104 0.4032,13.5328 C0.1632,13.3312 0.0288,13.0384 0,12.6544 L0.528,12.6544 C0.5376,12.8848 0.6096,13.0624 0.7536,13.1872 C0.8784,13.3024 1.0416,13.36 1.2432,13.36 C1.464,13.36 1.6416,13.2928 1.776,13.168 C1.8912,13.0528 1.9536,12.9136 1.9536,12.7408 C1.9536,12.5392 1.8912,12.3904 1.7664,12.2944 C1.6512,12.1984 1.4784,12.1504 1.2528,12.1504 L1.0032,12.1504 L1.0032,11.7568 L1.248,11.7568 C1.4592,11.7568 1.6176,11.7088 1.7232,11.6176 C1.8288,11.5264 1.8864,11.392 1.8864,11.2192 C1.8864,11.0464 1.8336,10.9168 1.7376,10.8256 C1.632,10.7296 1.4736,10.6864 1.272,10.6864 C1.0656,10.6864 0.9024,10.7392 0.7872,10.8448 C0.672,10.9504 0.6,11.1088 0.5808,11.32 L0.0672,11.32 C0.096,10.9792 0.2208,10.7152 0.4464,10.5232 C0.6576,10.3312 0.9312,10.24 1.2672,10.24 Z" id="3"></path>
            <path d="M1.1943,0.2 L1.6371,0.2 L1.6371,3.8 L1.0485,3.8 L1.0485,0.860504202 C0.8163,1.06722689 0.5193,1.21848739 0.1629,1.31428571 L0.1629,0.769747899 C0.3357,0.729411765 0.5139,0.658823529 0.7083,0.557983193 C0.9027,0.447058824 1.0647,0.331092437 1.1943,0.2 Z" id="1"></path>
            <path d="M1.25365854,5.24 C1.58536585,5.24 1.86341463,5.33268293 2.07804878,5.52780488 C2.28780488,5.72292683 2.39512195,5.97170732 2.39512195,6.27902439 C2.39512195,6.58146341 2.27804878,6.85463415 2.05365854,7.10341463 C1.91707317,7.24487805 1.67804878,7.4302439 1.33170732,7.66439024 C0.956097561,7.91317073 0.731707317,8.13268293 0.658536585,8.32292683 L2.4,8.32292683 L2.4,8.79121951 L0,8.79121951 C0,8.44487805 0.112195122,8.14243902 0.346341463,7.87902439 C0.473170732,7.72780488 0.736585366,7.51804878 1.13170732,7.24487805 C1.36585366,7.07902439 1.53170732,6.94731707 1.62926829,6.84487805 C1.78536585,6.66926829 1.86829268,6.47902439 1.86829268,6.27414634 C1.86829268,6.07902439 1.81463415,5.93268293 1.70731707,5.83512195 C1.6,5.73756098 1.43902439,5.68878049 1.23414634,5.68878049 C1.01463415,5.68878049 0.848780488,5.76195122 0.736585366,5.91317073 C0.619512195,6.0595122 0.56097561,6.26926829 0.551219512,6.55219512 L0.0195121951,6.55219512 C0.0243902439,6.16195122 0.136585366,5.8497561 0.356097561,5.61560976 C0.580487805,5.36195122 0.882926829,5.24 1.25365854,5.24 Z" id="2"></path>
            <rect id="矩形-copy" fill-rule="nonzero" x="4" y="1.4" width="10" height="1.2" rx="0.6"></rect>
            <rect id="矩形-copy-8" fill-rule="nonzero" x="4" y="6.4" width="10" height="1.2" rx="0.6"></rect>
            <rect id="矩形-copy-9" fill-rule="nonzero" x="4" y="11.4" width="10" height="1.2" rx="0.6"></rect>
        </g>
    </g>
</svg>