<?xml version="1.0" encoding="UTF-8"?>
<svg width="18px" height="18px" viewBox="0 0 18 18" version="1.1" xmlns="http://www.w3.org/2000/svg" xmlns:xlink="http://www.w3.org/1999/xlink">
    <!-- Generator: Sketch 61.2 (89653) - https://sketch.com -->
    <title>icon/富文本/左缩紧1.2</title>
    <desc>Created with Sketch.</desc>
    <g id="icon/富文本/左缩紧1.2" stroke="none" stroke-width="1" fill="none" fill-rule="evenodd">
        <g id="分组" transform="translate(2.000000, 2.000000)">
            <rect id="矩形" fill-rule="nonzero" x="0" y="0" width="14" height="14"></rect>
            <rect id="矩形" fill="#474C59" fill-rule="nonzero" x="0.5" y="1.4" width="13" height="1.2" rx="0.6"></rect>
            <rect id="矩形-copy-5" fill="#474C59" fill-rule="nonzero" x="0.5" y="6.4" width="4.5" height="1.2" rx="0.6"></rect>
            <rect id="矩形-copy-6" fill="#474C59" fill-rule="nonzero" x="7.5" y="6.4" width="6" height="1.2" rx="0.6"></rect>
            <rect id="矩形-copy-7" fill="#474C59" fill-rule="nonzero" x="0.5" y="11.4" width="13" height="1.2" rx="0.6"></rect>
            <path d="M9.62487373,5.25487373 C9.95624458,5.25487373 10.2248737,5.52350288 10.2248737,5.85487373 C10.2248737,6.18624458 9.95624458,6.45487373 9.62487373,6.45487373 L7.92387373,6.45487373 L7.92487373,8.25487373 C7.92487373,8.53101611 7.70101611,8.75487373 7.42487373,8.75487373 L7.22487373,8.75487373 C6.94873136,8.75487373 6.72487373,8.53101611 6.72487373,8.25487373 L6.72487373,5.75487373 C6.72487373,5.47873136 6.94873136,5.25487373 7.22487373,5.25487373 L9.62487373,5.25487373 Z" id="Combined-Shape" fill="#474C59" transform="translate(8.474874, 7.004874) rotate(-45.000000) translate(-8.474874, -7.004874) "></path>
        </g>
    </g>
</svg>