<?xml version="1.0" encoding="UTF-8"?>
<svg width="18px" height="18px" viewBox="0 0 18 18" version="1.1" xmlns="http://www.w3.org/2000/svg" xmlns:xlink="http://www.w3.org/1999/xlink">
    <title>icon/富文本/首行缩进1.2蓝</title>
    <g id="icon/富文本/首行缩进1.2蓝" stroke="none" stroke-width="1" fill="none" fill-rule="evenodd">
        <g id="分组" transform="translate(2.000000, 2.000000)">
            <rect id="矩形-copy" fill-rule="nonzero" x="0" y="1" width="14" height="14"></rect>
            <g id="Group" transform="translate(7.000000, 7.000000) scale(-1, 1) translate(-7.000000, -7.000000) " fill="#3A8BFF">
                <rect id="矩形" fill-rule="nonzero" x="0.5" y="2.4" width="4.5" height="1.2" rx="0.6"></rect>
                <rect id="矩形-copy-5" fill-rule="nonzero" x="0.5" y="7.4" width="13" height="1.2" rx="0.6"></rect>
                <rect id="矩形-copy-6" fill-rule="nonzero" x="7.5" y="2.4" width="6" height="1.2" rx="0.6"></rect>
                <rect id="矩形-copy-7" fill-rule="nonzero" x="0.5" y="12.4" width="13" height="1.2" rx="0.6"></rect>
                <path d="M9.62512627,1.32487373 C9.95649712,1.32487373 10.2251263,1.59350288 10.2251263,1.92487373 C10.2251263,2.25624458 9.95649712,2.52487373 9.62512627,2.52487373 L7.92412627,2.52487373 L7.92512627,4.32487373 C7.92512627,4.60101611 7.70126864,4.82487373 7.42512627,4.82487373 L7.22512627,4.82487373 C6.94898389,4.82487373 6.72512627,4.60101611 6.72512627,4.32487373 L6.72512627,1.82487373 C6.72512627,1.54873136 6.94898389,1.32487373 7.22512627,1.32487373 L9.62512627,1.32487373 Z" id="Combined-Shape" transform="translate(8.475126, 3.074874) rotate(-45.000000) translate(-8.475126, -3.074874) "></path>
            </g>
        </g>
    </g>
</svg>