<?xml version="1.0" encoding="UTF-8"?>
<svg width="16px" height="16px" viewBox="0 0 16 16" version="1.1" xmlns="http://www.w3.org/2000/svg" xmlns:xlink="http://www.w3.org/1999/xlink">
    <!-- Generator: Sketch 52.5 (67469) - http://www.bohemiancoding.com/sketch -->
    <title>icon/删除</title>
    <desc>Created with Sketch.</desc>
    <g id="Symbols" stroke="none" stroke-width="1" fill="none" fill-rule="evenodd">
        <g id="icon/删除" fill-rule="nonzero">
            <g>
                <path d="M8,0 C12.4178571,0 16,3.58214286 16,8 C16,12.4178571 12.4178571,16 8,16 C3.58214286,16 0,12.4178571 0,8 C0,3.58214286 3.58214286,0 8,0 Z" id="Shape-Copy-10" fill="#3A8BFF"></path>
                <path d="M11.099671,10.6524799 L8.95138632,8.40189597 L11.099671,6.15131207 C11.3561826,5.88258563 11.3561826,5.44590517 11.099671,5.1754992 C10.8431594,4.90677276 10.426328,4.90677276 10.1682132,5.1754992 L8.01992858,7.4260831 L5.87164395,5.1754992 C5.61513235,4.90677276 5.198301,4.90677276 4.9401862,5.1754992 C4.68367461,5.44422563 4.68367461,5.88090609 4.9401862,6.15131207 L7.08847084,8.40189597 L4.9401862,10.6524799 C4.68367461,10.9212063 4.68367461,11.3578868 4.9401862,11.6282927 C5.1966978,11.8970192 5.61352915,11.8970192 5.87164395,11.6282927 L8.01992858,9.37770884 L10.1682132,11.6282927 C10.4247248,11.8970192 10.8415562,11.8970192 11.099671,11.6282927 C11.3577858,11.3595663 11.3577858,10.9228858 11.099671,10.6524799 Z" id="Path-Copy" fill="#FFFFFF"></path>
            </g>
        </g>
    </g>
</svg>