<?xml version="1.0" encoding="UTF-8"?>
<svg width="18px" height="18px" viewBox="0 0 18 18" version="1.1" xmlns="http://www.w3.org/2000/svg" xmlns:xlink="http://www.w3.org/1999/xlink">
    <!-- Generator: Sketch 60.1 (88133) - https://sketch.com -->
    <title>icon/富文本/清楚格式</title>
    <desc>Created with Sketch.</desc>
    <g id="icon/富文本/清楚格式" stroke="none" stroke-width="1" fill="none" fill-rule="evenodd">
        <g id="路径-2" transform="translate(9.500000, 10.500000) rotate(-134.000000) translate(-9.500000, -10.500000) translate(3.000000, 4.000000)" fill="#474C59" fill-rule="nonzero">
            <path d="M5.2,3.52930775 L5.2,6.96428571 L5.2,6.96428571 L11.05,6.96428571 L10.9571429,1.95 C10.9571429,1.85714286 10.8642857,1.48844774 10.4928571,1.48571429 L7.04458463,1.48571429 C6.83449439,1.48571429 6.63211128,1.56484281 6.47773625,1.70734284 L5.64592143,2.49391886 C5.36127861,2.76308119 5.2,3.13755542 5.2,3.52930775 Z M4.08571429,4.05888983 L1.32756132,6.88886402 C1.11279765,7.10922006 0.760063437,7.11375356 0.539707404,6.89898989 C0.319351372,6.68422622 0.314817866,6.33149201 0.529581537,6.11113598 L4.71306809,1.81982678 L5.72193843,0.888561854 C6.08214682,0.556061798 6.55437409,0.371428571 7.04458463,0.371428571 L10.4,0.371428571 C11.4769553,0.371428571 12.0714286,1.24447331 12.0714286,2.32142857 L12.35,10.7714286 C12.35,11.8483838 11.8483838,12.6285714 10.7714286,12.6285714 L5.94285714,12.6285714 C4.86590188,12.6285714 4.08571429,11.8483838 4.08571429,10.7714286 L4.08571429,4.05888983 Z" id="路径"></path>
        </g>
    </g>
</svg>