<svg width="18" height="18" viewBox="0 0 18 18" fill="none" xmlns="http://www.w3.org/2000/svg">
<path d="M9.01786 2.5C12.4795 2.5 15.2857 4.92278 15.2857 7.91142C15.2857 10.2757 13.5295 12.2858 11.082 13.0226C11.0891 13.3206 11.0972 13.6204 11.1022 13.7974C11.1046 13.8867 11.184 13.9574 11.2811 13.9574H14.3545C14.4144 13.9574 14.4704 13.9298 14.5036 13.8838L14.9575 13.2555C15.0557 13.1196 15.2857 13.1835 15.2857 13.3467V15.3352C15.2857 15.4262 15.2055 15.5 15.1066 15.5H10.4505C10.3516 15.5 10.2714 15.4262 10.2714 15.3352C10.2714 14.4408 10.2714 13.5459 10.2714 12.6517C12.255 12.0748 13 10.171 13 7.91142C13 5.19447 11 3.2 9.01786 3.2C7 3.20805 5 5.13964 5 7.85659C5 10.1162 5.78072 12.0748 7.76429 12.6517C7.76429 13.5459 7.76429 14.4408 7.76429 15.3352C7.76429 15.4262 7.68411 15.5 7.5852 15.5H2.92908C2.83018 15.5 2.75 15.4262 2.75 15.3352V13.3475C2.75 13.1842 2.9802 13.1203 3.07829 13.2563L3.53072 13.8837C3.5639 13.9297 3.61992 13.9574 3.67993 13.9574H6.78141C6.87895 13.9574 6.95853 13.886 6.96031 13.7962C6.96379 13.6203 6.96939 13.324 6.97374 13.0285C4.51575 12.2968 2.75 10.2821 2.75 7.91142C2.75 4.92278 5.55622 2.5 9.01786 2.5Z" fill="#474B59"/>
</svg>
