<?xml version="1.0" encoding="UTF-8"?>
<svg width="18px" height="18px" viewBox="0 0 18 18" version="1.1" xmlns="http://www.w3.org/2000/svg" xmlns:xlink="http://www.w3.org/1999/xlink">
    <!-- Generator: Sketch 61.2 (89653) - https://sketch.com -->
    <title>icon/富文本/删除线</title>
    <desc>Created with Sketch.</desc>
    <g id="icon/富文本/删除线" stroke="none" stroke-width="1" fill="none" fill-rule="evenodd">
        <g id="分组-4" transform="translate(2.000000, 2.000000)">
            <rect id="矩形" fill-rule="nonzero" x="0" y="0" width="14" height="14"></rect>
            <path d="M11.6666667,9.53333333 C11.6666667,10.4555602 11.2611152,11.2499967 10.45,11.9166667 C9.63888483,12.5833367 8.62778383,12.9166667 7.41666667,12.9166667 C6.71666317,12.9166667 6.11111367,12.8111122 5.6,12.6 C5.08888633,12.3888878 4.56666933,12.0666688 4.03333333,11.6333333 L3.66666667,12.7166667 L3.1,12.7166667 L2.33333333,8.63333333 L3.1,8.48333333 C3.500002,9.59445 4.09721825,10.4583302 4.89166667,11.075 C5.68611508,11.6916697 6.52777333,12 7.41666667,12 C8.15000367,12 8.79721942,11.7916687 9.35833333,11.375 C9.91944725,10.9583312 10.2,10.4666695 10.2,9.9 C10.2,9.366664 10.0055575,8.944446 9.61666667,8.63333333 C9.41042719,8.46834175 9.13856567,8.3127263 8.80107932,8.16648572 L11.3097616,8.1665993 C11.5476991,8.56775473 11.6666667,9.02333078 11.6666667,9.53333333 Z M6.53333333,1.16666667 C7.70000583,1.16666667 8.67221833,1.49444117 9.45,2.15 L9.8,1.36666667 L10.3833333,1.36666667 L11.25,4.86666667 L10.5,5.08333333 C10.033331,4.11666183 9.444448,3.37222483 8.73333333,2.85 C8.02221867,2.32777517 7.25555967,2.06666667 6.43333333,2.06666667 C5.73332983,2.06666667 5.15555783,2.23610942 4.7,2.575 C4.24444217,2.91389058 4.01666667,3.32777533 4.01666667,3.81666667 C4.01666667,4.26111333 4.20277592,4.63610958 4.575,4.94166667 C4.94722408,5.24722375 5.54444033,5.522221 6.36666667,5.76666667 L8.48333333,6.38333333 C9.08459773,6.55689419 9.59940783,6.76243983 10.0277678,6.9999724 L5.05016944,7.00070055 C4.32479432,6.73301017 3.76363039,6.40500075 3.36666667,6.01666667 C2.855553,5.51666417 2.6,4.90000367 2.6,4.16666667 C2.6,3.3555515 2.9722185,2.65278075 3.71666667,2.05833333 C4.46111483,1.46388592 5.39999433,1.16666667 6.53333333,1.16666667 Z" id="合并形状" fill="#474C59"></path>
            <rect id="矩形" fill="#474C59" fill-rule="nonzero" x="2.33333333" y="5.83333333" width="10.5" height="1.16666667" rx="0.583333333"></rect>
        </g>
    </g>
</svg>