<?xml version="1.0" encoding="UTF-8"?>
<svg width="18px" height="18px" viewBox="0 0 18 18" version="1.1" xmlns="http://www.w3.org/2000/svg" xmlns:xlink="http://www.w3.org/1999/xlink">
    <title>icon/富文本/油漆桶</title>
    <g id="icon/富文本/油漆桶" stroke="none" stroke-width="1" fill="none" fill-rule="evenodd">
        <g id="颜料桶" transform="translate(3.500000, 2.000000)" fill="#474C59" fill-rule="nonzero">
            <path d="M5.77786552,2.64413717 L3.37701205,0.258652675 C3.23295934,0.115522114 3.00039122,0.115486533 2.85629472,0.258573009 C2.71344509,0.40042136 2.71263339,0.631214678 2.85448174,0.774064312 C2.85505775,0.774644381 2.8556357,0.775222512 2.85621559,0.775798693 L5.25706906,3.16128319 L5.25706906,3.16128319 L5.77786552,2.64413717 Z M4.33958438,1.90181308 L0.340198403,5.85883925 C0.143899466,6.05305907 0.14221401,6.36963707 0.336433831,6.56593601 C0.337681999,6.56719753 0.338936874,6.56845241 0.340198403,6.56970058 L4.33958438,10.5267267 C4.53440697,10.7194859 4.84809398,10.7194859 5.04291657,10.5267267 L9.04230255,6.56970058 C9.23860149,6.37548076 9.24028694,6.05890275 9.04606712,5.86260382 C9.04481895,5.86134229 9.04356408,5.86008741 9.04230255,5.85883925 L5.04291657,1.90181308 C4.84809398,1.70905396 4.53440697,1.70905396 4.33958438,1.90181308 Z M5.0407118,2.9337919 L7.43500743,5.28530041 C7.55321618,5.40139672 7.55492865,5.59133849 7.43883235,5.70954724 C7.38242392,5.76698205 7.30529907,5.79933628 7.22479647,5.79933628 L2.16038081,5.79933628 C1.99469539,5.79933628 1.86038081,5.66502171 1.86038081,5.49933628 C1.86038081,5.41893061 1.89265742,5.34189024 1.94997058,5.28549631 L4.33967649,2.9341184 C4.53413497,2.7427788 4.84607518,2.74263352 5.0407118,2.9337919 Z M9.77144959,7.36902655 C9.77144959,7.36902655 8.68361773,9.30984513 8.68361773,9.91095133 C8.68361773,10.5120575 9.1703434,11 9.77144959,11 C10.3725558,10.9987832 10.8592814,10.5120575 10.8592814,9.91095133 C10.8592814,9.30984513 9.77144959,7.36902655 9.77144959,7.36902655 Z" id="形状"></path>
        </g>
    </g>
</svg>