<?xml version="1.0" encoding="UTF-8"?>
<svg width="18px" height="18px" viewBox="0 0 18 18" version="1.1" xmlns="http://www.w3.org/2000/svg" xmlns:xlink="http://www.w3.org/1999/xlink">
    <!-- Generator: Sketch 61.2 (89653) - https://sketch.com -->
    <title>icon/富文本/下划线</title>
    <desc>Created with Sketch.</desc>
    <g id="icon/富文本/下划线" stroke="none" stroke-width="1" fill="none" fill-rule="evenodd">
        <g id="分组-4" transform="translate(2.000000, 2.000000)">
            <rect id="矩形" fill-rule="nonzero" x="0" y="0" width="14" height="14"></rect>
            <path d="M1.16666667,1.16666667 L5.5250947,1.16666667 L5.5250947,1.71885522 L5.24337121,1.71885522 C4.76830571,1.71885522 4.46172733,1.78394997 4.32362689,1.91414141 C4.18552646,2.04433286 4.11647727,2.29348862 4.11647727,2.66161616 L4.11647727,6.7962963 C4.11647727,7.5864237 4.2490517,8.16329785 4.51420455,8.52693603 C4.77935739,8.89057421 5.16327085,9.17564431 5.66595644,9.38215488 C6.16864203,9.58866545 6.68512992,9.69191919 7.21543561,9.69191919 C7.78993343,9.69191919 8.34232689,9.57519758 8.87263258,9.34175084 C9.40293826,9.10830411 9.80066155,8.81650007 10.0658144,8.46632997 C10.3309672,8.11615987 10.4635417,7.5235732 10.4635417,6.68855219 L10.4635417,2.72895623 C10.4635417,2.36980741 10.3917305,2.11167306 10.2481061,1.95454545 C10.1044816,1.79741785 9.81171307,1.71885522 9.36979167,1.71885522 L9.05492424,1.71885522 L9.05492424,1.16666667 L12.8333333,1.16666667 L12.8333333,1.71885522 L12.5681818,1.71885522 C12.1373085,1.71885522 11.8445399,1.78394997 11.6898674,1.91414141 C11.5351949,2.04433286 11.4578598,2.29348862 11.4578598,2.66161616 L11.4578598,6.89057239 C11.4578598,8.03984862 11.0408028,8.92872862 10.2066761,9.55723906 C9.37254949,10.1857495 8.30366813,10.5 7,10.5 C5.88414846,10.5 4.87326842,10.2239085 3.96732955,9.67171717 C3.06139067,9.11952586 2.60842803,8.28227273 2.60842803,7.15993266 L2.60842803,2.66161616 C2.60842803,2.2845099 2.54214081,2.03310949 2.40956439,1.90740741 C2.27698797,1.78170532 2.00079124,1.71885522 1.58096591,1.71885522 L1.16666667,1.71885522 L1.16666667,1.16666667 Z" id="U" fill="#474C59"></path>
            <rect id="矩形" fill="#474C59" fill-rule="nonzero" x="1.75" y="11.6666667" width="10.5" height="1.16666667" rx="0.583333333"></rect>
        </g>
    </g>
</svg>